<svg width="32" height="32" viewBox="0 0 32 32" fill="none" xmlns="http://www.w3.org/2000/svg">
  <!-- Background circle -->
  <circle cx="16" cy="16" r="16" fill="#013237"/>
  
  <!-- Sun rays (representing Aruna - dawn/sunrise) -->
  <g stroke="#4CA771" stroke-width="1.5" stroke-linecap="round">
    <line x1="16" y1="4" x2="16" y2="6"/>
    <line x1="16" y1="26" x2="16" y2="28"/>
    <line x1="4" y1="16" x2="6" y2="16"/>
    <line x1="26" y1="16" x2="28" y2="16"/>
    <line x1="7.76" y1="7.76" x2="9.17" y2="9.17"/>
    <line x1="22.83" y1="22.83" x2="24.24" y2="24.24"/>
    <line x1="7.76" y1="24.24" x2="9.17" y2="22.83"/>
    <line x1="22.83" y1="9.17" x2="24.24" y2="7.76"/>
  </g>
  
  <!-- Central sun/hotel building -->
  <circle cx="16" cy="16" r="6" fill="#4CA771"/>
  
  <!-- Hotel building silhouette -->
  <g fill="#013237">
    <!-- Main building -->
    <rect x="13" y="12" width="6" height="8" rx="0.5"/>
    <!-- Windows -->
    <rect x="14" y="13" width="1" height="1" fill="#EAF9E7"/>
    <rect x="17" y="13" width="1" height="1" fill="#EAF9E7"/>
    <rect x="14" y="15" width="1" height="1" fill="#EAF9E7"/>
    <rect x="17" y="15" width="1" height="1" fill="#EAF9E7"/>
    <rect x="14" y="17" width="1" height="1" fill="#EAF9E7"/>
    <rect x="17" y="17" width="1" height="1" fill="#EAF9E7"/>
    <!-- Door -->
    <rect x="15.5" y="18" width="1" height="2" fill="#EAF9E7"/>
  </g>
  
  <!-- Letter "A" for Aruna -->
  <text x="16" y="18" font-family="Arial, sans-serif" font-size="8" font-weight="bold" text-anchor="middle" fill="#EAF9E7">A</text>
</svg>